<?xml version="1.0" encoding="UTF-8" standalone="no"?>
<!-- Generator: Adobe Illustrator 16.0.0, SVG Export Plug-In . SVG Version: 6.00 Build 0)  -->

<svg
   xmlns:dc="http://purl.org/dc/elements/1.1/"
   xmlns:cc="http://creativecommons.org/ns#"
   xmlns:rdf="http://www.w3.org/1999/02/22-rdf-syntax-ns#"
   xmlns:svg="http://www.w3.org/2000/svg"
   xmlns="http://www.w3.org/2000/svg"
   xmlns:sodipodi="http://sodipodi.sourceforge.net/DTD/sodipodi-0.dtd"
   xmlns:inkscape="http://www.inkscape.org/namespaces/inkscape"
   version="1.1"
   id="Capa_1"
   x="0px"
   y="0px"
   width="32"
   height="32"
   viewBox="0 0 32 32"
   xml:space="preserve"
   sodipodi:docname="paper.svg"
   inkscape:version="0.92.3 (2405546, 2018-03-11)"><metadata
   id="metadata55"><rdf:RDF><cc:Work
       rdf:about=""><dc:format>image/svg+xml</dc:format><dc:type
         rdf:resource="http://purl.org/dc/dcmitype/StillImage" /><dc:title></dc:title></cc:Work></rdf:RDF></metadata><defs
   id="defs53" /><sodipodi:namedview
   pagecolor="#ffffff"
   bordercolor="#666666"
   borderopacity="1"
   objecttolerance="10"
   gridtolerance="10"
   guidetolerance="10"
   inkscape:pageopacity="0"
   inkscape:pageshadow="2"
   inkscape:window-width="1440"
   inkscape:window-height="629"
   id="namedview51"
   showgrid="false"
   inkscape:zoom="7.442682"
   inkscape:cx="12.697036"
   inkscape:cy="15.8545"
   inkscape:window-x="0"
   inkscape:window-y="27"
   inkscape:window-maximized="0"
   inkscape:current-layer="Capa_1" />
<g
   id="g18"
   transform="translate(0,0.29100037)">
	<g
   id="g16">
		<path
   d="M 10.595,25.719 H 4.696 c -1.127,0 -2.06,-0.886 -2.06,-2.013 V 5.42 c 0,-1.127 0.933,-2.006 2.06,-2.006 h 14.277 c 1.127,0 2.047,0.879 2.047,2.006 v 15.323 l 2.637,-3.135 V 3.462 c 0,-1.482 -1.172,-2.684 -2.652,-2.684 H 2.559 C 1.136,0.778 0,1.932 0,3.354 v 22.382 c 0,1.482 1.185,2.688 2.669,2.688 h 10.358 l -1.224,-1.063 c -0.536,-0.465 -0.939,-1.034 -1.208,-1.642 z"
   id="path2"
   inkscape:connector-curvature="0" />
		<path
   d="M 17.875,6.794 H 6.034 c -0.728,0 -1.314,0.591 -1.314,1.318 0,0.726 0.587,1.317 1.314,1.317 h 11.84 c 0.728,0 1.312,-0.591 1.312,-1.317 0.002,-0.726 -0.584,-1.318 -1.311,-1.318 z"
   id="path4"
   inkscape:connector-curvature="0" />
		<path
   d="M 17.875,11.187 H 6.034 c -0.728,0 -1.314,0.59 -1.314,1.318 0,0.724 0.587,1.318 1.314,1.318 h 11.84 c 0.728,0 1.312,-0.594 1.312,-1.318 0.002,-0.728 -0.584,-1.318 -1.311,-1.318 z"
   id="path6"
   inkscape:connector-curvature="0" />
		<path
   d="M 17.875,15.581 H 6.034 c -0.728,0 -1.314,0.558 -1.314,1.286 0,0.725 0.587,1.282 1.314,1.282 h 11.84 c 0.728,0 1.312,-0.56 1.312,-1.282 0.002,-0.728 -0.584,-1.286 -1.311,-1.286 z"
   id="path8"
   inkscape:connector-curvature="0" />
		<path
   d="m 4.719,21.056 c 0,0.727 0.587,1.283 1.314,1.283 h 4.418 c 0.185,-0.473 0.469,-1.022 0.857,-1.479 0.408,-0.473 0.889,-0.82 1.412,-1.092 H 6.034 c -0.728,0.003 -1.315,0.563 -1.315,1.288 z"
   id="path10"
   inkscape:connector-curvature="0" />
		<path
   d="m 17.875,19.771 h -0.988 c 0.324,0.137 0.633,0.366 0.916,0.611 l 1.312,1.123 c 0.05,-0.135 0.076,-0.28 0.076,-0.437 -0.003,-0.722 -0.589,-1.297 -1.316,-1.297 z"
   id="path12"
   inkscape:connector-curvature="0" />
		<path
   d="m 30.898,16.249 c -0.965,-0.828 -2.42,-0.71 -3.246,0.26 l -7.564,8.867 -3.781,-3.248 c -0.968,-0.826 -2.421,-0.717 -3.248,0.248 -0.829,0.967 -0.717,2.418 0.248,3.246 l 5.533,4.752 c 0.422,0.358 0.951,0.557 1.5,0.557 0.062,0 0.119,-0.002 0.182,-0.008 0.607,-0.047 1.176,-0.336 1.572,-0.801 L 31.16,19.495 c 0.822,-0.967 0.709,-2.418 -0.262,-3.246 z"
   id="path14"
   inkscape:connector-curvature="0" />
	</g>
</g>
<g
   id="g20"
   transform="translate(0,0.29100037)">
</g>
<g
   id="g22"
   transform="translate(0,0.29100037)">
</g>
<g
   id="g24"
   transform="translate(0,0.29100037)">
</g>
<g
   id="g26"
   transform="translate(0,0.29100037)">
</g>
<g
   id="g28"
   transform="translate(0,0.29100037)">
</g>
<g
   id="g30"
   transform="translate(0,0.29100037)">
</g>
<g
   id="g32"
   transform="translate(0,0.29100037)">
</g>
<g
   id="g34"
   transform="translate(0,0.29100037)">
</g>
<g
   id="g36"
   transform="translate(0,0.29100037)">
</g>
<g
   id="g38"
   transform="translate(0,0.29100037)">
</g>
<g
   id="g40"
   transform="translate(0,0.29100037)">
</g>
<g
   id="g42"
   transform="translate(0,0.29100037)">
</g>
<g
   id="g44"
   transform="translate(0,0.29100037)">
</g>
<g
   id="g46"
   transform="translate(0,0.29100037)">
</g>
<g
   id="g48"
   transform="translate(0,0.29100037)">
</g>
</svg>